<?xml version="1.0" standalone="no"?>
<svg version="1.0" xmlns="http://www.w3.org/2000/svg"
 width="1090" height="360" viewBox="-150 0 1633 285"
 preserveAspectRatio="xMidYMid meet">

<g transform="translate(0.000000,301.000000) scale(0.100000,-0.100000)"
fill="#0866ff" stroke="none">
<path d="M6645 2795 c-49 -7 -134 -19 -187 -25 l-98 -12 0 -1134 0 -1134 194
0 194 0 7 114 7 115 37 -48 c108 -144 273 -221 473 -221 127 0 224 21 328 72
69 34 102 58 176 133 78 78 99 106 138 186 67 138 90 243 90 409 -1 104 -6
155 -22 223 -71 289 -264 497 -522 564 -81 20 -255 23 -330 4 -99 -24 -196
-77 -266 -145 l-64 -64 0 489 0 489 -32 -1 c-18 -1 -73 -7 -123 -14z m613
-1120 c58 -8 134 -47 181 -94 84 -84 122 -189 123 -336 0 -240 -142 -410 -354
-423 -97 -6 -163 10 -236 57 -257 166 -228 650 46 771 48 22 141 39 177 34 11
-1 39 -5 63 -9z"/>
<path d="M12000 2785 c-91 -13 -173 -24 -182 -24 -17 -1 -18 -62 -18 -1136 l0
-1135 215 0 215 0 0 350 c0 193 3 350 8 350 4 0 144 -157 310 -350 l303 -350
265 0 266 0 -27 32 c-15 18 -172 199 -349 401 -176 202 -321 374 -321 382 0 8
128 164 285 346 157 183 291 341 298 351 13 17 4 18 -227 18 l-241 0 -177
-207 c-305 -359 -374 -438 -384 -441 -5 -2 -9 281 -9 717 l0 721 -32 -1 c-18
-1 -107 -12 -198 -24z"/>
<path d="M785 2769 c-173 -29 -298 -115 -360 -245 -45 -94 -57 -160 -64 -339
l-6 -170 -120 -2 -120 -1 -3 -181 -2 -181 125 0 125 0 0 -580 0 -580 215 0
215 0 2 578 3 577 165 3 165 2 28 158 c16 86 31 167 34 179 l5 23 -198 2 -199
3 1 110 c0 168 28 230 123 273 50 23 69 26 174 27 l117 0 -2 165 -3 165 -75
12 c-86 13 -271 15 -345 2z"/>
<path d="M1825 2046 c-342 -68 -568 -349 -592 -735 -21 -349 142 -664 413
-796 94 -46 183 -65 313 -65 181 0 311 49 421 159 37 36 74 77 83 91 16 25 16
25 17 -25 0 -27 3 -80 7 -117 l6 -68 192 0 192 0 2 765 1 765 -194 0 -193 0
-7 -77 c-3 -42 -6 -96 -6 -121 l0 -44 -37 50 c-78 102 -187 174 -313 207 -88
23 -220 27 -305 11z m397 -397 c66 -34 103 -65 142 -122 121 -177 101 -459
-42 -600 -71 -70 -140 -100 -239 -105 -225 -12 -379 133 -407 383 -21 184 77
381 222 445 94 42 241 42 324 -1z"/>
<path d="M3761 2049 c-92 -12 -194 -44 -286 -92 -60 -31 -102 -63 -171 -132
-77 -76 -98 -105 -137 -185 -67 -135 -88 -226 -88 -380 -1 -136 16 -235 55
-332 89 -219 267 -380 496 -448 114 -33 322 -39 455 -11 110 23 249 84 337
149 86 63 86 50 -9 209 l-85 142 -42 -28 c-117 -81 -225 -115 -356 -114 -107
0 -176 21 -248 73 -173 128 -211 437 -76 623 76 105 178 152 329 152 115 0
208 -25 302 -82 31 -18 57 -32 59 -31 1 2 39 66 84 142 63 106 80 143 73 155
-18 30 -171 118 -251 144 -154 51 -292 65 -441 46z"/>
<path d="M5255 2050 c-290 -44 -513 -218 -610 -475 -38 -99 -55 -200 -55 -320
0 -364 182 -635 501 -749 129 -46 229 -60 402 -53 110 4 163 11 237 31 109 30
279 111 335 159 l38 33 -77 137 c-43 75 -80 137 -83 137 -3 0 -17 -8 -31 -19
-58 -40 -160 -84 -250 -107 -278 -71 -523 12 -622 209 l-31 62 545 3 546 2 7
28 c5 15 8 88 7 162 -2 268 -88 476 -256 617 -59 49 -188 110 -273 128 -90 19
-253 26 -330 15z m235 -346 c119 -33 207 -136 217 -254 l6 -60 -354 2 -354 3
4 25 c18 131 136 258 268 289 61 14 152 12 213 -5z"/>
<path d="M8825 2046 c-323 -53 -551 -246 -641 -541 -25 -82 -28 -105 -28 -250
-1 -137 3 -171 22 -238 78 -273 266 -458 547 -539 70 -20 102 -23 250 -23 147
0 181 3 249 23 257 74 432 227 522 454 89 225 73 510 -39 722 -101 189 -290
329 -515 380 -101 23 -269 28 -367 12z m292 -388 c66 -24 156 -105 189 -169
73 -145 72 -343 -3 -481 -33 -60 -94 -118 -165 -155 -48 -26 -62 -28 -158 -28
-99 0 -110 2 -172 33 -78 38 -130 92 -169 176 -132 282 12 612 281 645 73 9
134 3 197 -21z"/>
<path d="M10670 2053 c-331 -34 -587 -235 -686 -538 -36 -108 -45 -320 -19
-446 64 -321 295 -543 630 -606 111 -21 332 -13 433 16 277 80 466 267 544
538 19 66 23 102 23 233 0 131 -4 167 -23 233 -90 314 -319 512 -652 562 -89
14 -169 17 -250 8z m263 -402 c72 -31 159 -123 187 -196 98 -259 2 -533 -217
-615 -84 -32 -215 -25 -291 14 -147 75 -222 212 -222 401 1 277 184 454 440
424 30 -4 77 -16 103 -28z"/>
</g>
</svg>